<svg version="1.1" xmlns="http://www.w3.org/2000/svg" xmlns:xlink="http://www.w3.org/1999/xlink" width="376.80947" height="389.48944" viewBox="0,0,376.80947,389.48944"><g transform="translate(-58.58421,14.70006)"><g data-paper-data="{&quot;isPaintingLayer&quot;:true}" fill="none" fill-rule="nonzero" stroke="#ff6969" stroke-width="22.5" stroke-linecap="butt" stroke-linejoin="miter" stroke-miterlimit="10" stroke-dasharray="" stroke-dashoffset="0" style="mix-blend-mode: normal"><path d="M73.16726,108.69504c18.12308,-46.38863 67.27492,-106.31461 166.77091,-112.1451c32.4493,-0.45748 59.62956,7.15835 82.12065,18.83423c75.2694,39.07491 98.0203,123.62228 89.98764,103.21729c-21.29342,-54.09073 -47.66339,-82.48601 -99.9112,-104.97689c-52.2478,-22.49089 -91.34172,-21.91958 -143.06757,0.38285c-54.96465,22.25864 -77.44898,49.39106 -98.459,100.54971c-0.52507,1.27854 -1.0464,2.57176 -1.56429,3.87997c-0.51788,1.3082 4.12286,-9.74204 4.12286,-9.74204z" data-paper-data="{&quot;index&quot;:null}"/><path d="M300.65022,7.5148c-27.80098,-10.9097 121.37287,23.05531 123.49257,172.09712c-0.43481,38.89613 -12.97352,71.39577 -35.81878,107.39644c-26.52976,47.99126 -106.2561,70.87865 -88.17414,64.5904c54.95113,-19.11 81.13139,-46.99899 106.6467,-99.94803c24.9017,-51.6757 17.93491,-104.98489 0.27773,-146.07497c-22.65717,-52.09007 -51.91687,-76.67115 -106.42409,-98.06093z" data-paper-data="{&quot;index&quot;:null}"/><path d="M76.11423,260.89541c-0.68988,-1.73358 -0.84225,-1.8587 0.15934,0.55411c15.61817,31.472 28.71407,59.15136 78.70563,79.86977c0.14618,0.06058 -1.80169,-0.555 -1.80169,-0.555c0,0 -25.14549,-8.79608 -43.42906,-28.76188c0,0 -18.54755,-13.19601 -33.63422,-51.107z" data-paper-data="{&quot;index&quot;:null}"/><path d="M160.79751,344.02708c-37.80512,-16.4756 -2.2414,-0.46802 0.5863,0.72208c22.92324,8.05468 44.13668,17.98731 70.12917,18.7902c29.1903,0.90167 39.14498,-2.62164 64.53489,-10.22829c0.17904,-0.05364 -2.05304,0.81056 -2.05304,0.81056c0,0 -29.89513,12.29389 -62.21653,9.34354c0,0 -27.13168,0.11022 -70.98079,-19.03809z" data-paper-data="{&quot;index&quot;:null}"/></g></g></svg>