<svg version="1.1" xmlns="http://www.w3.org/2000/svg" xmlns:xlink="http://www.w3.org/1999/xlink" width="507.79163" height="448.72164" viewBox="0,0,507.79163,448.72164"><g transform="translate(12.39582,49.86082)"><g data-paper-data="{&quot;isPaintingLayer&quot;:true}" fill="#ff6969" fill-rule="nonzero" stroke="none" stroke-width="0" stroke-linecap="butt" stroke-linejoin="miter" stroke-miterlimit="10" stroke-dasharray="" stroke-dashoffset="0" style="mix-blend-mode: normal"><path d="M286.74425,-49.86082h208.65156v183.11657h-208.65156z"/><path d="M-12.39582,-49.86082h207.04691v183.11657h-207.04691z"/><path d="M286.74425,228.1396h208.65156v170.72122h-208.65156z"/><path d="M-12.39582,228.13961h207.04691v167.21324h-207.04691z"/><path d="M39.65,380.35c0,0 71.5802,-132.94577 71.5802,-199.60437c0,-66.90715 -71.5802,-201.09563 -71.5802,-201.09563c0,0 128.62519,71.5802 194.38497,71.5802c67.74768,0 206.31503,-71.5802 206.31503,-71.5802c0,0 -70.08895,136.50586 -70.08895,199.60437c0,69.79213 70.08895,201.09563 70.08895,201.09563c0,0 -131.17412,-52.69098 -197.36749,-52.69098c-67.35315,0 -203.33251,52.69098 -203.33251,52.69098z"/></g></g></svg>