<svg version="1.1" xmlns="http://www.w3.org/2000/svg" xmlns:xlink="http://www.w3.org/1999/xlink" width="56.26203" height="47.10977" viewBox="0,0,56.26203,47.10977"><defs><radialGradient cx="240" cy="168.83333" r="21.75" gradientUnits="userSpaceOnUse" id="color-1"><stop offset="0" stop-color="#6b6b6b"/><stop offset="1" stop-color="#6b6b6b" stop-opacity="0"/></radialGradient></defs><g transform="translate(-211.86898,-156.44511)"><g data-paper-data="{&quot;isPaintingLayer&quot;:true}" fill-rule="nonzero" stroke-linecap="butt" stroke-linejoin="miter" stroke-miterlimit="10" stroke-dasharray="" stroke-dashoffset="0" style="mix-blend-mode: normal"><path d="M211.86898,199.40908c0,-8.4519 0,-34.26814 0,-38.90909c0,-2.02437 1.57264,-4.05488 4.17647,-4.05488c11.18928,0 41.42071,0 47.72727,0c2.25274,0 4.35829,2.03051 4.35829,4.05488c0,4.67452 0,30.73021 0,39.09091c0,2.43592 -1.57208,3.96398 -4.17647,3.96398c-11.28628,0 -41.95914,0 -48.09091,0c-2.08633,0 -3.99465,-1.60433 -3.99465,-4.14579z" fill="#000000" stroke="none" stroke-width="0"/><path d="M218.25,168.83295v0.00076h43.5v-0.00076z" fill="none" stroke="url(#color-1)" stroke-width="0.625"/></g></g></svg>