<svg version="1.1" xmlns="http://www.w3.org/2000/svg" xmlns:xlink="http://www.w3.org/1999/xlink" width="744.1229" height="654.00001" viewBox="0,0,744.1229,654.00001"><g transform="translate(141.62287,124.00001)"><g data-paper-data="{&quot;isPaintingLayer&quot;:true}" fill="none" fill-rule="nonzero" stroke-linecap="butt" stroke-linejoin="miter" stroke-miterlimit="10" stroke-dasharray="" stroke-dashoffset="0" style="mix-blend-mode: normal"><path d="M-141.62287,530.00001v-654.00001h744.1229v654.00001z" stroke="none" stroke-width="0"/><path d="M85.83393,76.69503c18.12308,-46.38863 54.60825,-74.31461 154.10424,-80.1451c32.4493,-0.45748 59.62956,7.15835 82.12065,18.83423c75.2694,39.07491 98.0203,123.62228 89.98764,103.21729c-21.29342,-54.09073 -47.66339,-82.48601 -99.9112,-104.97689c-52.2478,-22.49089 -91.34172,-21.91958 -143.06757,0.38285c-54.96465,22.25864 -64.78231,17.39106 -85.79233,68.54971c-0.52507,1.27854 -1.0464,2.57176 -1.56429,3.87997c-0.51788,1.3082 4.12286,-9.74204 4.12286,-9.74204z" data-paper-data="{&quot;index&quot;:null}" stroke="#ff6969" stroke-width="22.5"/><path d="M300.65022,7.51478c-27.80098,-10.9097 121.37287,23.05531 123.49257,172.09712c-0.43481,38.89613 -12.97352,71.39577 -35.81878,107.39644c-26.52976,47.99126 -91.92277,65.87865 -73.84081,59.5904c54.95113,-19.11 66.79806,-41.99899 92.31337,-94.94803c24.9017,-51.6757 17.93491,-104.98489 0.27773,-146.07497c-22.65717,-52.09007 -51.91687,-76.67115 -106.42409,-98.06093z" data-paper-data="{&quot;index&quot;:null}" stroke="#ff6969" stroke-width="22.5"/><path d="M85.78091,274.56207c-0.68988,-1.73358 -0.84225,-1.8587 0.15934,0.55411c15.61817,31.472 9.0474,38.15136 59.03896,58.86977c0.14618,0.06058 -1.80169,-0.555 -1.80169,-0.555c0,0 -15.14549,-1.46275 -33.42906,-21.42855c0,0 -8.88088,0.47066 -23.96755,-37.44033z" data-paper-data="{&quot;index&quot;:null}" stroke="#ff6969" stroke-width="22.5"/></g></g></svg>