<svg version="1.1" xmlns="http://www.w3.org/2000/svg" xmlns:xlink="http://www.w3.org/1999/xlink" width="372.26655" height="389.48942" viewBox="0,0,372.26655,389.48942"><g transform="translate(-63.12714,14.70006)"><g data-paper-data="{&quot;isPaintingLayer&quot;:true}" fill="none" fill-rule="nonzero" stroke="#ff6969" stroke-width="22.5" stroke-linecap="butt" stroke-linejoin="miter" stroke-miterlimit="10" stroke-dasharray="" stroke-dashoffset="0" style="mix-blend-mode: normal"><path d="M78.5006,99.69504c24.78975,-43.0553 61.94159,-97.31461 161.43758,-103.1451c32.4493,-0.45748 59.62956,7.15835 82.12065,18.83423c75.2694,39.07491 98.0203,123.62228 89.98764,103.21729c-21.29342,-54.09073 -47.66339,-82.48601 -99.9112,-104.97689c-52.2478,-22.49089 -91.34172,-21.91958 -143.06757,0.38285c-54.96465,22.25864 -59.11565,40.05773 -91.459,84.21638c-0.52507,1.27854 1.28693,-1.42824 0.76904,-0.12003c-0.51788,1.3082 -5.21047,10.59129 -5.21047,10.59129z" data-paper-data="{&quot;index&quot;:null}"/><path d="M300.65022,7.5148c-27.80098,-10.9097 121.37287,23.05531 123.49257,172.09712c-0.43481,38.89613 -12.97352,71.39577 -35.81878,107.39644c-26.52976,47.99126 -106.2561,70.87865 -88.17414,64.5904c54.95113,-19.11 81.13139,-46.99899 106.6467,-99.94803c24.9017,-51.6757 17.93491,-104.98489 0.27773,-146.07497c-22.65717,-52.09007 -51.91687,-76.67115 -106.42409,-98.06093z" data-paper-data="{&quot;index&quot;:null}"/><path d="M84.11423,274.22874c-0.68988,-1.73358 -1.84225,-2.52537 -0.84066,-0.11256c15.61817,31.472 21.71407,46.48469 71.70563,67.2031c0.14618,0.06058 -1.80169,-0.555 -1.80169,-0.555c0,0 -25.14549,-8.79608 -43.42906,-28.76188c0,0 -10.54755,0.13732 -25.63422,-37.77367z" data-paper-data="{&quot;index&quot;:null}"/><path d="M160.79751,344.02708c-37.80512,-16.4756 -2.2414,-0.46802 0.5863,0.72208c22.92324,8.05468 44.13668,17.98731 70.12917,18.7902c29.1903,0.90167 39.14498,-2.62164 64.53489,-10.22829c0.17904,-0.05364 -2.05304,0.81056 -2.05304,0.81056c0,0 -29.89513,12.29389 -62.21653,9.34354c0,0 -27.13168,0.11022 -70.98079,-19.03809z" data-paper-data="{&quot;index&quot;:null}"/></g></g></svg>