<svg version="1.1" xmlns="http://www.w3.org/2000/svg" xmlns:xlink="http://www.w3.org/1999/xlink" width="526.81731" height="512.47729" viewBox="0,0,526.81731,512.47729"><g transform="translate(65.80598,76.09013)"><g data-paper-data="{&quot;isPaintingLayer&quot;:true}" fill="#ff6969" fill-rule="nonzero" stroke="#ff6969" stroke-width="41" stroke-linecap="butt" stroke-linejoin="miter" stroke-miterlimit="10" stroke-dasharray="" stroke-dashoffset="0" style="mix-blend-mode: normal"><path d="M48.02051,323.89623c0,0 -56.59463,-2.54683 -71.1167,-19.77307c-16.36197,-19.40875 -22.19544,-90.91479 -22.19544,-90.91479c0,0 1.80714,-105.10644 14.95737,-130.45395c18.22602,-35.13125 126.23049,-97.73391 126.23049,-97.73391c0,0 93.76464,-40.08154 141.63021,-40.6057c45.92524,-0.50291 139.98319,37.52185 139.98319,37.52185l54.46986,54.16711l-144.18786,144.18786l99.5,189.5c0,0 -99.24065,45.73062 -147.80751,46.09553c-48.49566,0.36438 -143.38035,-43.90767 -143.38035,-43.90767z"/><path d="M96.10377,-11.97949l335.87572,335.87572l-48.08326,48.08326l-335.87572,-335.87572z"/></g></g></svg>