<svg version="1.1" xmlns="http://www.w3.org/2000/svg" xmlns:xlink="http://www.w3.org/1999/xlink" width="507.77689" height="507.48948" viewBox="0,0,507.77689,507.48948"><g transform="translate(13.88085,73.75266)"><g data-paper-data="{&quot;isPaintingLayer&quot;:true}" fill="none" fill-rule="nonzero" stroke="#ffa292" stroke-linecap="butt" stroke-linejoin="miter" stroke-miterlimit="10" stroke-dasharray="" stroke-dashoffset="0" style="mix-blend-mode: normal"><path d="M468.33503,275l-133.20275,133.52404l-189.52313,0.20184l-134.47626,-132.78623l0.25038,-190.43965l133.40749,-133.7356l190.81839,-0.49028l133.25795,134.4364z" data-paper-data="{&quot;index&quot;:null}" stroke-width="50"/><path d="M408.01033,250.01438c-21.07329,50.86741 -47.97941,77.51874 -98.01543,98.25185c-50.03602,20.73311 -89.08697,20.76095 -139.45801,0.14852c-50.37104,-20.61243 -78.13863,-47.58753 -98.95252,-97.70893c-20.8139,-50.1214 -20.6616,-89.57269 0.18424,-140.13242c20.84584,-50.55972 47.40068,-77.39121 98.16609,-98.40752c50.76541,-21.01631 89.13343,-21.55468 140.41111,-0.36077c51.27768,21.19392 77.15801,47.95171 98.05604,98.9232c20.89804,50.97148 20.68177,88.41867 -0.39152,139.28608z" data-paper-data="{&quot;index&quot;:null}" stroke-width="22.5"/></g></g></svg>